# xmcd
#
# Track frame offsets: 
#        150
#        12264
#        28182
#        42163
#        57658
#        69163
#        82969
#        98765
#        111496
#        125107
#        139897
#        152364
#        165207
#        177625
#        190182
#        201356
#
# Disc length: 2865 seconds
#
# Revision: 6
# Processed by: cddbd v1.5.2PL0 Copyright (c) Steve Scherf et al.
# Submitted via: ExactAudioCopy v1.0b4
#
DISCID=db0b2f10
DTITLE=Various Artist - Blues In History III CD2
DYEAR=1900
DGENRE=Blues
TTITLE0=Richard M Jones - Richard M Jones - Trouble In Mind
TTITLE1=Genevieve Davis - Genevieve Davis - Haven't Got A Dollar To Pa
TTITLE1=y Your House Rent
TTITLE2=Richard Rabbit Brown James - Richard Rabbit Brown James - Alle
TTITLE2=y Blues
TTITLE3=Lizzie Miles - Lizzie Miles - I Hate A Man Like You
TTITLE4=New Orleans Willie Jackson - New Orleans Willie Jackson - Char
TTITLE4=leston Hound
TTITLE5=Esther Bigeau - Esther Bigeau - That Twa Twa Tune
TTITLE6=Fats Pichon - Fats Pichon - Doggin' That Thing
TTITLE7=Blue Lu Barker - Blue Lu Barker - New Orleans Blues
TTITLE8=Clarence Williams - Clarence Williams - A Pane In The Glass
TTITLE9=New Orleans Willie Jackson - New Orleans Willie Jackson - Old 
TTITLE9=New Orlean Blues
TTITLE10=Little Brother Montgomery - Little Brother Montgomery - Somet
TTITLE10=hing Keeps A-Worryin' Me
TTITLE11=Little Brother Montgomery - Little Brother Montgomery - Plead
TTITLE11=ing Blues
TTITLE12=Esther Bigeau - Esther Bigeau - West Indies Blues
TTITLE13=Christina Gray - Christina Gray - The Reverend In My Man
TTITLE14=Creole George Guesnon - Creole George Guesnon - Goodbye, Good
TTITLE14=Luck To You
TTITLE15=Sidney Bechet - Sidney Bechet - Sidney's Blues
EXTD=
EXTT0=
EXTT1=
EXTT2=
EXTT3=
EXTT4=
EXTT5=
EXTT6=
EXTT7=
EXTT8=
EXTT9=
EXTT10=
EXTT11=
EXTT12=
EXTT13=
EXTT14=
EXTT15=
PLAYORDER=
